<?xml version="1.0" encoding="UTF-8" standalone="no"?>
<svg xmlns:dc="http://purl.org/dc/elements/1.1/" xmlns:cc="http://creativecommons.org/ns#" xmlns:rdf="http://www.w3.org/1999/02/22-rdf-syntax-ns#" xmlns:svg="http://www.w3.org/2000/svg" xmlns="http://www.w3.org/2000/svg" xmlns:sodipodi="http://sodipodi.sourceforge.net/DTD/sodipodi-0.dtd" xmlns:inkscape="http://www.inkscape.org/namespaces/inkscape" width="64" height="64" viewBox="0 0 64.000001 64.000001" id="svg4364" version="1.1" inkscape:version="0.91 r13725" sodipodi:docname="7 heart love like relation attract feeling valentine.svg">
  <defs id="defs4366"/>
  <sodipodi:namedview id="base" pagecolor="#ffffff" bordercolor="#666666" borderopacity="1.0" inkscape:pageopacity="0.0" inkscape:pageshadow="2" inkscape:zoom="7.9195959" inkscape:cx="9.4479137" inkscape:cy="28.155546" inkscape:document-units="px" inkscape:current-layer="layer1" showgrid="true" units="px" inkscape:snap-bbox="true" inkscape:bbox-paths="true" inkscape:bbox-nodes="true" inkscape:snap-bbox-edge-midpoints="true" inkscape:snap-bbox-midpoints="true" inkscape:window-width="1366" inkscape:window-height="705" inkscape:window-x="-8" inkscape:window-y="-8" inkscape:window-maximized="1">
    <inkscape:grid type="xygrid" id="grid4372"/>
  </sodipodi:namedview>
  
  <g inkscape:label="Layer 1" inkscape:groupmode="layer" id="layer1" transform="translate(0,-988.36216)">
    <g id="g11800" transform="matrix(2.0044763,0,0,2.0044763,1954.2224,-6408.8413)">
      <g transform="matrix(0.63172491,-0.16927019,0.16927019,0.63172491,-807.9776,1157.1032)" id="g11803">
        <path style="fill:#ff143a;fill-opacity:1;fill-rule:evenodd;stroke:none;stroke-width:1px;stroke-linecap:round;stroke-linejoin:round;stroke-opacity:1" d="m -1250.6742,3699.244 c -2.4367,2.4458 -2.4367,6.3836 0,8.8295 l 0.8796,0.883 8.7967,8.8296 8.7967,-8.8296 0.8797,-0.883 c 2.4367,-2.4459 2.4367,-6.3837 0,-8.8295 -2.4367,-2.4459 -6.36,-2.4459 -8.7967,0 l -0.8797,0.8829 -0.8796,-0.8829 c -2.4367,-2.4459 -6.3601,-2.4459 -8.7967,0 z" id="path11805" inkscape:connector-curvature="0"/>
        <path sodipodi:open="true" d="m -1249.9284,3705.7893 a 4.25,4.25 0 0 1 0,-4.25 4.25,4.25 0 0 1 3.6806,-2.125" sodipodi:end="4.712389" sodipodi:start="2.6179939" sodipodi:ry="4.25" sodipodi:rx="4.25" sodipodi:cy="3703.6643" sodipodi:cx="-1246.2478" sodipodi:type="arc" style="opacity:0.4;fill:none;fill-rule:evenodd;stroke:#ffffff;stroke-width:1.52561462;stroke-linecap:round;stroke-linejoin:round;stroke-opacity:1" id="path11809"/>
        <path sodipodi:nodetypes="sccccccccsscccccccccs" inkscape:connector-curvature="0" id="path11813" transform="translate(0,1020.3622)" d="m -1246.2754,2677.0469 c -1.59,0 -3.1801,0.611 -4.3984,1.834 -0.2528,0.2537 -0.4735,0.528 -0.6739,0.8105 0.01,-0.01 0.01,-0.012 0.016,-0.018 2.224,-2.2324 5.8052,-2.2324 8.0293,0 l 1.1862,1.1966 0.8027,-0.8067 c 0.1031,-0.1035 0.2117,-0.1971 0.3203,-0.291 l -0.8835,-0.8918 c -1.2183,-1.223 -2.8084,-1.834 -4.3984,-1.834 z m 10.5547,0 c -1.2963,0 -2.5887,0.4136 -3.6836,1.2265 1.9566,-0.6267 4.1786,-0.1632 5.7363,1.4004 2.2242,2.2324 2.2242,5.8261 0,8.0586 l -0.8027,0.8067 -7.6895,7.7187 1.1622,1.166 8.7968,-8.83 0.8789,-0.8829 c 2.4367,-2.4459 2.4367,-6.3842 0,-8.83 -1.2183,-1.223 -2.8084,-1.834 -4.3984,-1.834 z" style="fill:#d30045;fill-opacity:1;fill-rule:evenodd;stroke:none;stroke-width:1px;stroke-linecap:round;stroke-linejoin:round;stroke-opacity:1"/>
        <path style="fill:#a40028;fill-opacity:1;fill-rule:evenodd;stroke:none;stroke-width:1px;stroke-linecap:round;stroke-linejoin:round;stroke-opacity:1" d="m -961.98242,2681.5293 c -0.51167,0.035 -1.01241,0.1686 -1.47461,0.3906 0.0848,0.75 0.3193,1.4957 0.71875,2.1895 l 0.4668,0.8105 2.83984,4.9278 0.85742,-1.4922 0.40625,-0.7051 c 1.12531,-1.9576 0.45919,-4.4455 -1.49414,-5.5781 -0.7325,-0.4248 -1.53917,-0.5971 -2.32031,-0.543 z" transform="matrix(1.4769288,0.3957419,-0.3957419,1.4769288,1247.4395,117.79387)" id="path11815" inkscape:connector-curvature="0"/>
        <path style="fill:#760032;fill-opacity:1;fill-rule:evenodd;stroke:none;stroke-width:1px;stroke-linecap:round;stroke-linejoin:round;stroke-opacity:1" d="m -961.98242,2681.5293 c -0.25584,0.018 -0.50894,0.059 -0.75586,0.125 -0.23337,0.062 -0.46028,0.1474 -0.67969,0.25 -0.0129,0.01 -0.0242,0.015 -0.0371,0.021 0.0221,0.194 0.0533,0.3875 0.0957,0.5801 0.78374,-0.1054 1.60787,0.033 2.34961,0.4629 1.78297,1.0337 2.39047,3.3049 1.36329,5.0917 l -0.3711,0.6446 -0.0371,0.062 0.62305,1.0801 0.85742,-1.4922 0.40625,-0.7051 c 3e-4,-5e-4 -3e-4,0 0,0 0.28133,-0.4894 0.4504,-1.0108 0.51563,-1.5371 0.0327,-0.2637 0.0401,-0.5271 0.0215,-0.789 -0.003,-0.044 -0.017,-0.085 -0.0215,-0.1289 -0.0223,-0.2168 -0.0531,-0.4327 -0.10938,-0.6426 -0.0675,-0.2521 -0.15878,-0.4969 -0.27344,-0.7324 -0.11483,-0.236 -0.25196,-0.462 -0.41211,-0.6739 -0.0766,-0.1014 -0.17509,-0.1866 -0.26171,-0.2812 -0.0941,-0.1028 -0.17752,-0.2128 -0.28321,-0.3067 -0.0851,-0.075 -0.18885,-0.134 -0.28125,-0.2031 -0.12774,-0.096 -0.24724,-0.1992 -0.38867,-0.2812 -0.0197,-0.011 -0.0407,-0.018 -0.0606,-0.029 -0.20031,-0.1119 -0.40638,-0.2023 -0.61523,-0.2774 -0.0717,-0.026 -0.14442,-0.045 -0.2168,-0.066 -0.1686,-0.05 -0.33887,-0.09 -0.50976,-0.1172 -0.0718,-0.012 -0.14288,-0.026 -0.21485,-0.033 -0.23503,-0.025 -0.46994,-0.036 -0.70312,-0.019 z" transform="matrix(1.4769288,0.3957419,-0.3957419,1.4769288,1247.4395,117.79387)" id="path11817" inkscape:connector-curvature="0"/>
      </g>
      <g id="g11819" transform="matrix(0.72495505,0.19425111,-0.19425111,0.72495505,665.11245,1258.7232)">
        <path inkscape:connector-curvature="0" id="path11822" d="m -1250.6742,3699.244 c -2.4367,2.4458 -2.4367,6.3836 0,8.8295 l 0.8796,0.883 8.7967,8.8296 8.7967,-8.8296 0.8797,-0.883 c 2.4367,-2.4459 2.4367,-6.3837 0,-8.8295 -2.4367,-2.4459 -6.36,-2.4459 -8.7967,0 l -0.8797,0.8829 -0.8796,-0.8829 c -2.4367,-2.4459 -6.3601,-2.4459 -8.7967,0 z" style="fill:#ff143a;fill-opacity:1;fill-rule:evenodd;stroke:none;stroke-width:1px;stroke-linecap:round;stroke-linejoin:round;stroke-opacity:1"/>
        <path id="path11824" style="opacity:0.4;fill:none;fill-rule:evenodd;stroke:#ffffff;stroke-width:1.32941866;stroke-linecap:round;stroke-linejoin:round;stroke-opacity:1" sodipodi:type="arc" sodipodi:cx="-1246.2478" sodipodi:cy="3703.6643" sodipodi:rx="4.25" sodipodi:ry="4.25" sodipodi:start="2.6179939" sodipodi:end="4.712389" d="m -1249.9284,3705.7893 a 4.25,4.25 0 0 1 0,-4.25 4.25,4.25 0 0 1 3.6806,-2.125" sodipodi:open="true"/>
        <path style="fill:#d30045;fill-opacity:1;fill-rule:evenodd;stroke:none;stroke-width:1px;stroke-linecap:round;stroke-linejoin:round;stroke-opacity:1" d="m -1246.2754,2677.0469 c -1.59,0 -3.1801,0.611 -4.3984,1.834 -0.2528,0.2537 -0.4735,0.528 -0.6739,0.8105 0.01,-0.01 0.01,-0.012 0.016,-0.018 2.224,-2.2324 5.8052,-2.2324 8.0293,0 l 1.1862,1.1966 0.8027,-0.8067 c 0.1031,-0.1035 0.2117,-0.1971 0.3203,-0.291 l -0.8835,-0.8918 c -1.2183,-1.223 -2.8084,-1.834 -4.3984,-1.834 z m 10.5547,0 c -1.2963,0 -2.5887,0.4136 -3.6836,1.2265 1.9566,-0.6267 4.1786,-0.1632 5.7363,1.4004 2.2242,2.2324 2.2242,5.8261 0,8.0586 l -0.8027,0.8067 -7.6895,7.7187 1.1622,1.166 8.7968,-8.83 0.8789,-0.8829 c 2.4367,-2.4459 2.4367,-6.3842 0,-8.83 -1.2183,-1.223 -2.8084,-1.834 -4.3984,-1.834 z" transform="translate(0,1020.3622)" id="path11826" inkscape:connector-curvature="0" sodipodi:nodetypes="sccccccccsscccccccccs"/>
      </g>
    </g>
  </g>

	<metadata>
		<rdf:RDF xmlns:rdf="http://www.w3.org/1999/02/22-rdf-syntax-ns#" xmlns:rdfs="http://www.w3.org/2000/01/rdf-schema#" xmlns:dc="http://purl.org/dc/elements/1.1/">
			<rdf:Description about="https://iconscout.com/legal#licenses" dc:title="7 heart love like relation attract feeling valentine" dc:description="7 heart love like relation attract feeling valentine" dc:publisher="Iconscout" dc:date="2017-01-24" dc:format="image/svg+xml" dc:language="en">
				<dc:creator>
					<rdf:Bag>
						<rdf:li>Jemis Mali</rdf:li>
					</rdf:Bag>
				</dc:creator>
			</rdf:Description>
		</rdf:RDF>
    </metadata></svg>
